<svg width="333" height="196" viewBox="0 0 333 196" fill="none" xmlns="http://www.w3.org/2000/svg">
  <style>
    @media (prefers-color-scheme: dark) {
      path {
        fill: #ffffff;
      }
    }
  </style>
<path d="M4.76378 195.5H20.5432C21.7479 195.5 22.8544 194.836 23.4207 193.772L123.792 5.29229C124.948 3.12086 123.375 0.5 120.915 0.5H105.135C103.93 0.5 102.824 1.16436 102.258 2.22767L1.88637 190.708C0.730024 192.879 2.30366 195.5 4.76378 195.5Z" fill="black" stroke="black"/>
<path d="M118.887 86.9483C114.113 86.9483 110.243 90.8186 110.243 95.5929V128.171C110.243 132.946 114.113 136.816 118.887 136.816C123.109 136.816 126.532 140.238 126.532 144.46C126.532 149.235 130.402 153.105 135.176 153.105C139.398 153.105 142.821 156.528 142.821 160.75C142.821 165.524 146.691 169.394 151.466 169.394H184.044C188.818 169.394 192.689 165.524 192.689 160.75C192.689 156.528 196.111 153.105 200.333 153.105C205.107 153.105 208.978 149.235 208.978 144.46C208.978 140.238 212.4 136.816 216.622 136.816L224.585 136.816C228.807 136.816 232.229 140.239 232.229 144.461C232.229 149.235 236.1 153.105 240.874 153.105C245.096 153.105 248.519 156.528 248.519 160.75C248.519 165.524 252.389 169.394 257.163 169.394H289.742C294.516 169.394 298.386 165.524 298.386 160.75C298.386 156.528 301.809 153.105 306.031 153.105C310.805 153.105 314.675 149.235 314.675 144.461C314.675 140.239 318.098 136.816 322.32 136.816C327.094 136.816 330.964 132.946 330.964 128.171V95.593C330.964 90.8188 327.094 86.9485 322.32 86.9485C318.098 86.9485 314.675 83.5259 314.675 79.3039C314.675 74.5296 310.805 70.6593 306.031 70.6593C301.809 70.6593 298.386 67.2367 298.386 63.0147C298.386 58.2404 294.516 54.3701 289.742 54.3701H257.163C252.389 54.3701 248.519 58.2404 248.519 63.0147C248.519 67.2367 245.096 70.6593 240.874 70.6593C236.1 70.6593 232.229 74.5296 232.229 79.3039C232.229 83.5259 228.807 86.9485 224.585 86.9485L216.622 86.9483C212.4 86.9483 208.978 83.5257 208.978 79.3038C208.978 74.5295 205.107 70.6592 200.333 70.6592C196.111 70.6592 192.689 67.2366 192.689 63.0146C192.689 58.2403 188.818 54.37 184.044 54.37H151.466C146.691 54.37 142.821 58.2403 142.821 63.0146C142.821 67.2366 139.398 70.6592 135.176 70.6592C130.402 70.6592 126.532 74.5295 126.532 79.3038C126.532 83.5257 123.109 86.9483 118.887 86.9483ZM145.507 81.5505C145.507 77.6389 148.678 74.4678 152.589 74.4678H182.92C186.832 74.4678 190.003 77.6389 190.003 81.5505C190.003 86.0145 193.622 89.6333 198.086 89.6333C201.997 89.6333 205.168 92.8043 205.168 96.716V111.881C205.168 115.793 201.997 118.964 198.086 118.964C193.622 118.964 190.003 122.583 190.003 127.047C190.003 130.959 186.832 134.13 182.92 134.13C178.456 134.13 174.838 137.748 174.838 142.212C174.838 146.124 171.667 149.295 167.755 149.295H152.589C148.678 149.295 145.507 146.124 145.507 142.212C145.507 137.748 141.888 134.13 137.424 134.13C133.512 134.13 130.341 130.959 130.341 127.047V96.716C130.341 92.8043 133.512 89.6333 137.424 89.6333C141.888 89.6333 145.507 86.0145 145.507 81.5505ZM295.701 142.213C295.701 146.124 292.529 149.295 288.618 149.295H258.287C254.375 149.295 251.204 146.124 251.204 142.213C251.204 137.749 247.585 134.13 243.121 134.13C239.21 134.13 236.039 130.959 236.039 127.047V111.882C236.039 107.97 239.21 104.799 243.121 104.799C247.585 104.799 251.204 101.18 251.204 96.7161C251.204 92.8044 254.375 89.6333 258.287 89.6333C262.751 89.6333 266.37 86.0146 266.37 81.5506C266.37 77.6389 269.541 74.4679 273.452 74.4679H288.618C292.529 74.4679 295.701 77.6389 295.701 81.5506C295.701 86.0146 299.319 89.6333 303.783 89.6333C307.695 89.6333 310.866 92.8044 310.866 96.7161V127.047C310.866 130.959 307.695 134.13 303.783 134.13C299.319 134.13 295.701 137.749 295.701 142.213Z" fill="black" stroke="black"/>
</svg>
