<?xml version="1.0" standalone="no"?>
<!DOCTYPE svg PUBLIC "-//W3C//DTD SVG 20010904//EN"
 "http://www.w3.org/TR/2001/REC-SVG-20010904/DTD/svg10.dtd">
<svg version="1.0" xmlns="http://www.w3.org/2000/svg"
 width="700.000000pt" height="700.000000pt" viewBox="0 0 700.000000 700.000000"
 preserveAspectRatio="xMidYMid meet">
<metadata>
Created by potrace 1.14, written by Peter Selinger 2001-2017
</metadata>
<g transform="translate(0.000000,700.000000) scale(0.100000,-0.100000)"
fill="#000000" stroke="none">
<path d="M2196 5471 c-14 -9 -47 -57 -77 -115 -29 -56 -61 -117 -72 -136 -11
-19 -40 -73 -64 -120 -25 -47 -62 -116 -83 -155 -86 -161 -110 -205 -165 -310
-32 -60 -70 -132 -85 -160 -15 -27 -50 -93 -78 -145 -59 -112 -361 -679 -407
-765 -18 -33 -61 -114 -95 -180 -35 -66 -66 -124 -70 -130 -4 -5 -40 -73 -80
-150 -40 -77 -80 -153 -90 -170 -9 -16 -48 -88 -85 -160 -37 -71 -75 -143 -85
-160 -9 -16 -43 -79 -75 -140 -32 -60 -70 -132 -85 -160 -26 -49 -84 -157
-207 -390 -35 -66 -67 -127 -72 -135 -26 -42 -92 -178 -95 -195 -6 -34 21 -84
51 -96 17 -7 101 -11 207 -11 158 0 182 3 204 19 23 18 46 55 139 233 25 47
62 117 83 155 20 39 59 111 85 160 26 50 83 156 126 238 44 81 114 213 158
295 43 81 99 185 123 232 25 47 83 155 128 240 46 85 103 193 128 240 24 47
59 112 77 145 53 98 109 204 165 310 29 55 69 132 90 170 21 39 75 140 120
225 132 248 161 301 195 365 18 33 61 114 95 180 34 66 71 134 80 150 10 17
46 84 80 150 35 66 85 159 110 206 102 188 107 211 54 260 -25 23 -30 24 -214
24 -152 1 -194 -2 -214 -14z"/>
<path d="M3102 4380 c-75 -34 -116 -94 -126 -185 -9 -81 -47 -117 -138 -128
-107 -13 -169 -75 -188 -188 -17 -100 -51 -134 -143 -143 -53 -5 -117 -38
-144 -75 -41 -55 -44 -82 -44 -458 1 -399 2 -407 63 -470 32 -33 98 -59 153
-62 59 -2 115 -70 115 -139 0 -31 24 -87 53 -124 21 -26 88 -57 142 -63 81
-11 119 -46 130 -120 10 -70 26 -109 58 -142 63 -67 63 -67 462 -68 198 -1
376 3 395 8 85 22 143 97 153 194 7 76 49 117 130 127 62 9 86 18 126 52 40
33 70 95 71 144 0 41 29 92 65 116 21 14 49 17 139 17 160 0 196 -23 210 -132
15 -118 76 -180 190 -195 95 -13 128 -48 141 -146 8 -66 43 -120 99 -155 l49
-30 381 0 c422 1 417 0 479 69 35 37 44 60 53 123 12 92 54 133 140 138 100 6
174 79 188 188 13 93 49 129 141 142 72 9 124 42 159 99 l31 49 -1 381 c0 367
-1 382 -21 421 -36 68 -88 103 -166 112 -94 10 -129 45 -142 142 -16 111 -103
191 -207 191 -65 0 -112 51 -121 132 -10 85 -56 151 -126 181 -35 15 -707 19
-780 5 -89 -17 -161 -107 -161 -203 0 -62 -54 -111 -132 -119 -59 -5 -112 -31
-144 -69 -32 -38 -41 -62 -50 -124 -14 -108 -53 -133 -211 -133 -91 0 -113 3
-141 20 -37 22 -62 72 -62 121 0 44 -44 119 -86 149 -39 26 -46 29 -114 37
-79 9 -130 68 -130 149 0 34 -26 87 -57 118 -61 62 -53 61 -465 62 -338 1
-382 -1 -416 -16z m742 -449 c10 -1 33 -16 51 -35 25 -27 33 -46 38 -88 3 -29
13 -66 22 -83 24 -42 81 -84 124 -91 72 -11 115 -30 135 -57 20 -27 21 -41 21
-223 l0 -194 -31 -31 c-23 -23 -43 -33 -75 -36 -24 -2 -57 -9 -74 -15 -68 -25
-125 -106 -125 -177 0 -30 -7 -48 -27 -71 -26 -27 -49 -36 -145 -55 -33 -6
-94 -57 -112 -94 -8 -14 -17 -48 -20 -76 -8 -56 -25 -87 -59 -110 -35 -23
-372 -24 -416 -1 -33 18 -61 62 -61 97 0 39 -23 98 -49 128 -35 38 -77 58
-136 65 -60 7 -93 28 -110 69 -18 45 -16 682 3 715 18 31 55 53 99 59 53 6 94
21 118 41 36 30 65 79 70 118 11 77 16 92 40 114 14 13 41 26 61 29 29 5 564
6 658 2z m2155 -11 c39 -16 60 -48 66 -104 14 -114 74 -175 188 -189 56 -8 90
-28 105 -63 8 -17 12 -128 12 -360 0 -295 -2 -339 -17 -364 -19 -32 -53 -51
-102 -56 -59 -6 -99 -24 -131 -61 -36 -41 -48 -69 -56 -127 -6 -47 -24 -79
-58 -101 -20 -13 -74 -16 -359 -16 -302 0 -339 1 -366 17 -33 20 -52 53 -58
104 -7 62 -23 98 -60 130 -40 35 -62 46 -119 54 -110 17 -125 43 -126 214 0
252 -1 245 30 280 22 27 37 35 82 41 68 10 97 22 132 56 37 35 55 71 62 129
12 84 37 112 111 121 67 9 104 26 141 62 30 30 54 89 54 132 0 27 23 72 45 91
24 20 73 25 241 24 96 -1 165 -6 183 -14z"/>
</g>
</svg>
