<svg class="sc-c073f2f7-0 hrXBYn" preserveAspectRatio="none" viewBox="0 0 1075 404" id="svg" xmlns="http://www.w3.org/2000/svg"><clipPath id="mask01" clipPathUnits="objectBoundingBox" transform="scale(0.0009302325581395349, 0.0024752475247524753)"><path d="M86.4 0h108v44.89h48v-24h148V0h294.17v20.84h148v24.05h48V0h108v44.89H1075v314.22h-86.4V404h-108v-44.89h-48v24.05h-148V404H390.43v-20.84h-148v-24.05h-48V404H86.4v-44.89H0V44.89h86.4Z"></path><path d="M86.4 0h100v44H242V0h206v34h43V17h94v17h42V0h206v44h55.6V0h100v44h30.4v28h56v260h-56v28h-30.4v44h-100v-44H833v44H627v-34h-42v17h-94v-17h-43v34H242v-44h-55.6v44h-100v-44H56v-28H0V72h56V44h30.4Z"></path><path d="M86.4 0h108v44.89h48v-24h148V0h294.17v20.84h148v24.05h48V0h108v44.89H1075v314.22h-86.4V404h-108v-44.89h-48v24.05h-148V404H390.43v-20.84h-148v-24.05h-48V404H86.4v-44.89H0V44.89h86.4Z"></path></clipPath></svg>