<svg width="11" height="11" viewBox="0 0 11 11" class="sc-f2487eeb-0 jQlonY sc-a4fa7d9-0 cAzmZn" xmlns="http://www.w3.org/2000/svg"><path d="M8.02306 4.62869C8.02306 6.50335 6.50335 8.02306 4.62869 8.02306C2.75403 8.02306 1.23432 6.50335 1.23432 4.62869C1.23432 2.75403 2.75403 1.23432 4.62869 1.23432C6.50335 1.23432 8.02306 2.75403 8.02306 4.62869ZM8.0745 9.15299C7.63798 8.71647 6.95491 8.67884 6.38374 8.91306C5.8425 9.13501 5.24988 9.25738 4.62869 9.25738C2.07233 9.25738 0 7.18504 0 4.62869C0 2.07233 2.07233 0 4.62869 0C7.18504 0 9.25738 2.07233 9.25738 4.62869C9.25738 5.30314 9.11313 5.9439 8.8538 6.5218C8.59272 7.10357 8.61721 7.81461 9.06811 8.2655L10.3323 9.52972C10.5921 9.78945 10.5921 10.2106 10.3323 10.4703C10.0726 10.73 9.6515 10.73 9.39178 10.4703L8.0745 9.15299Z"></path><path d="M8.02306 4.62869C8.02306 6.50335 6.50335 8.02306 4.62869 8.02306C2.75403 8.02306 1.23432 6.50335 1.23432 4.62869C1.23432 2.75403 2.75403 1.23432 4.62869 1.23432C6.50335 1.23432 8.02306 2.75403 8.02306 4.62869ZM8.0745 9.15299C7.63798 8.71647 6.95491 8.67884 6.38374 8.91306C5.8425 9.13501 5.24988 9.25738 4.62869 9.25738C2.07233 9.25738 0 7.18504 0 4.62869C0 2.07233 2.07233 0 4.62869 0C7.18504 0 9.25738 2.07233 9.25738 4.62869C9.25738 5.30314 9.11313 5.9439 8.8538 6.5218C8.59272 7.10357 8.61721 7.81461 9.06811 8.2655L10.3323 9.52972C10.5921 9.78945 10.5921 10.2106 10.3323 10.4703C10.0726 10.73 9.6515 10.73 9.39178 10.4703L8.0745 9.15299Z"></path></svg>